<?xml version="1.0" standalone="no"?>
<!DOCTYPE svg PUBLIC "-//W3C//DTD SVG 20010904//EN"
 "http://www.w3.org/TR/2001/REC-SVG-20010904/DTD/svg10.dtd">
<svg version="1.0" xmlns="http://www.w3.org/2000/svg"
 width="512.000000pt" height="512.000000pt" viewBox="0 0 512.000000 512.000000"
 preserveAspectRatio="xMidYMid meet">
<metadata>
Created by potrace 1.11, written by Peter Selinger 2001-2013
</metadata>
<g transform="translate(0.000000,512.000000) scale(0.100000,-0.100000)"
fill="#000000" stroke="none">
<path d="M2499 4883 c-8 -60 37 -154 117 -242 51 -56 55 -63 33 -58 -14 4 -44
9 -65 13 -83 12 -131 26 -176 50 l-48 24 -1 -27 c-10 -312 85 -519 281 -615
106 -52 123 -58 187 -61 55 -2 44 -11 -42 -35 l-70 -19 35 -22 c56 -34 129
-51 222 -52 67 0 88 -4 92 -15 8 -21 -18 -68 -48 -87 -28 -19 -58 -12 -152 36
-75 38 -175 56 -299 55 -175 -1 -163 -3 -181 43 -15 36 -20 40 -42 34 -14 -3
-37 -14 -51 -24 -36 -25 -71 -32 -94 -20 -15 8 -27 7 -53 -7 -19 -10 -34 -21
-34 -25 0 -9 -87 -69 -101 -69 -6 0 -31 16 -55 35 -70 58 -128 56 -213 -5 -47
-34 -69 -79 -106 -217 -15 -54 -31 -111 -36 -128 -6 -17 -7 -104 -4 -200 10
-278 12 -300 33 -341 11 -22 22 -55 25 -75 2 -21 18 -63 35 -95 17 -33 44 -89
61 -126 16 -38 42 -83 56 -102 14 -19 28 -43 30 -54 3 -20 2 -20 -33 -8 -20 7
-59 16 -87 20 -27 4 -66 10 -85 13 -19 3 -68 7 -107 8 -70 1 -72 1 -67 -21 5
-20 3 -22 -26 -18 -27 5 -30 3 -21 -13 5 -10 21 -58 36 -106 33 -104 81 -182
156 -253 l55 -51 -49 -69 c-63 -87 -119 -207 -148 -309 -48 -173 -20 -426 64
-575 40 -72 125 -178 177 -223 51 -43 162 -102 210 -112 65 -12 72 -16 65 -33
-7 -19 -7 -193 0 -259 2 -23 11 -58 19 -77 9 -21 11 -38 5 -41 -15 -10 -10
-62 7 -69 36 -14 188 9 203 31 3 5 44 28 91 51 47 24 103 59 125 80 22 20 84
59 137 86 54 27 108 59 120 71 l23 22 82 -42 c44 -23 92 -45 105 -47 12 -3 30
-8 39 -12 11 -5 24 5 44 34 25 36 28 50 28 113 0 48 -5 83 -16 104 l-17 32 54
20 c212 79 287 126 342 213 13 21 28 39 32 39 4 1 16 3 27 4 90 12 113 15 135
20 76 14 127 30 178 55 31 15 68 31 82 35 40 13 200 140 200 159 0 3 -22 -10
-49 -29 -26 -19 -73 -46 -104 -59 -49 -22 -57 -23 -68 -10 -48 58 -210 59
-285 2 -42 -33 -52 -49 -49 -79 3 -22 -1 -28 -21 -32 -28 -5 -28 -2 -8 78 40
162 37 338 -9 495 l-13 45 77 36 c123 58 314 189 372 254 9 11 27 38 38 59 12
22 41 60 66 85 25 25 51 58 58 72 14 26 13 27 -16 33 -25 5 -29 9 -24 26 4 13
2 20 -7 21 -7 1 -22 3 -33 5 -152 28 -195 32 -350 29 -155 -2 -214 -7 -237
-21 -14 -9 -9 4 22 55 48 77 104 259 116 371 9 81 7 237 -3 255 -15 26 -3 65
26 82 14 9 38 27 52 40 l26 24 -17 67 c-9 36 -24 68 -31 70 -50 15 -41 80 31
222 12 25 15 42 9 58 -5 13 -11 35 -14 49 -4 27 -20 44 -70 80 -22 15 -46 21
-85 21 -30 0 -60 1 -67 1 -18 1 -72 51 -88 81 -14 27 -13 28 25 54 49 33 168
143 182 170 14 26 18 63 19 169 0 97 -2 107 -38 190 -24 53 -43 73 -43 45 0
-18 -97 -148 -110 -148 -5 0 -10 12 -11 28 -1 53 -10 85 -39 143 -53 104 -115
159 -240 213 -36 16 -79 35 -95 42 -30 14 -49 20 -105 31 -120 25 -234 72
-282 118 -16 14 -28 22 -29 18z m1212 -3658 c58 -19 -27 -74 -121 -80 -66 -4
-89 10 -67 38 23 32 139 57 188 42z"/>
</g>
</svg>
